<svg fill="none" height="166" viewBox="0 0 177 166" width="177" xmlns="http://www.w3.org/2000/svg"><path d="m105.07 79.17v84.22" stroke="#2a272d" stroke-miterlimit="10" stroke-width="1.9882"/><path d="m165.99 79.17v84.22" stroke="#2a272d" stroke-miterlimit="10" stroke-width="1.9882"/><path d="m69.05 105.18s11.69-2.65 13.45 4.96c1.52 6.53-14.38 6.28-14.38 6.28l-34.96.21s-13.17 1.52-19.68-13.67c-6.50999-15.19-12.779989-54.97-12.779989-54.97s-.940001-5.47 3.619999-6.27c5.36-.94 6.40999 10.64 6.40999 10.64s8.1 49.1 19.86 51.5c1.81.37 3.25 1.74 5.1 1.72z" fill="#ffeee3"/><path d="m100.12 65.52 11.04-.76c.9-.06 1.76.35 2.27 1.08l6.17 9.33-5.25.25-2.96-4.55s-8.53 2.13-11.68 0z" fill="#f2c09e"/><path d="m55.65 35.29 14.75 27.41 30.65.98v10.08l-32.37 1.42c-4.28.19-8.34-1.86-10.74-5.41l-14.73-26.45z" fill="#efc375"/><path d="m101.05 63.67v10.08l-3.42.15v-10.34z" fill="#f7e5da"/><path d="m84.99 144.92 1.73 12.12 8.72-.54-1.25-12.51z" fill="#fcc9a7"/><path d="m84.77 155.81c.19-.57.87-.8 1.36-.45.96.68 2.65 1.49 5.08 1.18 2.53-.32 3.42-1.67 3.73-2.62.16-.5.7-.77 1.19-.58l15.72 6.16c.96.37 1.72 1.11 2.13 2.05.38.88-.25 1.87-1.22 1.89l-26.62.39c-1.05.02-1.89-.85-1.85-1.9l.19-5.14c0-.09.02-.17.05-.25z" fill="#1f252a"/><path d="m58.5 32.94 2.5 4.01c.16.38.23 1.3-.46 1.64l-.97.7-2.08-3.18z" fill="#ffeee3"/><g fill="#fcc9a7"><path d="m53.84 37.18-.79-.38c-2.6-1.27-3.68-4.41-2.41-7.01l8.44-17.28 9.37 4.58-9.75 19.35c-1.04 2.15-2.71 1.79-4.86.74z"/><path d="m75.44 20.5c-2.75 5.62-9.54 7.96-15.16 5.21s-7.96-9.53-5.21-15.16c2.75-5.61999 9.53-7.95999 15.16-5.20999s7.96 9.53999 5.21 15.15999z"/><path d="m61.76 31.68c-2.67-1.3-3.78-4.53-2.47-7.2l4.76-9.75 11.48 5.61-3.88 7.95c-1.8 3.66-6.23 5.19-9.89 3.39z"/><path d="m74.04 22.63.62 4.36c.05.69-.68 1.14-1.32.83l-2.82-.77z"/></g><path d="m64.1 20.45s3.97.26 4.62-5.87c0 0 6.9 4.4 9.71 2.65 0 0 .86-17.339992-13.47-16.729992-14.33.610002-15.45 16.079992-15.45 16.079992l8.04 7.26z" fill="#1c2226"/><path d="m64.67 20.7c-.75 1.55-2.62 2.19-4.17 1.43-1.54-.76-2.19-2.62-1.43-4.17.75-1.55 2.62-2.19 4.17-1.43 1.54.76 2.18 2.62 1.43 4.17z" fill="#fcc9a7"/><path d="m55.92 18.4-2.13 4.97s4.68 3.75 7.04-1.08l-3.4-.96z" fill="#1c2226"/><path d="m68.72 14.58s9.35 7.22 13.04 1.17c2.94-4.83-.33-7.96-5.05-7.18-2.04.34-3.05-1.04-4.65-2.13z" fill="#1c2226"/><path d="m60.32 41.71s-.21-4.41-1.61-5.94-8.86-5.75-8.86-5.75-10.73 3.11-17.32 15.37c-5.13 9.55-9.96 33.72-9.96 33.72l30.96 4.49c2.67-18.06 7.67-26.29 6.79-41.89z" fill="#ffd686"/><path d="m50.37 29.17-1.29.58c-.46.21-.56.83-.18 1.17l8.18 7.28c.33.3.85.21 1.08-.17l.92-1.59c.17-.3.1-.68-.17-.9l-7.82-6.26c-.2-.18-.48-.22-.72-.11z" fill="#ffeee3"/><path d="m96.71 67.16 11.04-.76c.9-.06 1.76.35 2.27 1.08l5.66 8.05-5.29.68-2.41-3.71s-8.53 2.13-11.68 0z" fill="#fcc9a7"/><path d="m49.38 37.33 16.66 28.11 31.6.87v9.09l-34.1 1.49c-3.2.14-6.25-1.39-8.05-4.05l-18.55-27.48z" fill="#ffd686"/><path d="m97.64 66.31v9.08l-3.42.15v-9.23z" fill="#ffeee3"/><path d="m22.57 79.11 60.9 8.83c4.66.68 8.26 4.45 8.71 9.14l4.54 51.87-13.6.88-6.54-44.96-38.24.99c-10.38 0-18.34-9.22-16.83-19.49z" fill="#54585a"/><path d="m130.51 75.18h-32.12v2.08h32.12z" fill="#2a272d"/><path d="m130.52 77.26 10.39-30.35-2.18-.52-10.19 29.15z" fill="#2a272d"/><path d="m61.25 31.4s-2.89-1.71-2.89-5.31c0 0-1.8 3.9 1.87 7.33z" fill="#f2c09e"/><path d="m13.84 165.35c.48 0 .92-.33 1.05-.82l15.9-62.69c1.32-5.19 5.97-8.82 11.33-8.82 5.2 0 9.82 3.49 11.24 8.49 5.56 19.59 18.5 62.33 18.63 62.76.17.57.78.9 1.35.72.57-.17.9-.78.72-1.35-.13-.43-13.07-43.15-18.62-62.72-1.68-5.93-7.16-10.07-13.33-10.07-6.35 0-11.87 4.3-13.43 10.45l-15.9 62.7c-.15.58.2 1.17.78 1.32.1.02.19.03.28.03z" fill="#1f252a"/><path d="m55.5 72.83-9.55-14.13" stroke="#efc375" stroke-linecap="round" stroke-linejoin="round" stroke-miterlimit="10" stroke-width=".7847"/><path d="m176.51 77.26h-83.21v3.75h83.21z" fill="#ffeee3"/><path d="m105.07 90.12h60.92" stroke="#2a272d" stroke-miterlimit="10" stroke-width="1.9882"/><path d="m61.1 56.41-9.15-14.75" stroke="#efc375" stroke-linecap="round" stroke-linejoin="round" stroke-miterlimit="10" stroke-width=".7847"/></svg>